<?xml version="1.0" standalone="no"?>
<!DOCTYPE svg PUBLIC "-//W3C//DTD SVG 20010904//EN"
 "http://www.w3.org/TR/2001/REC-SVG-20010904/DTD/svg10.dtd">
<svg version="1.0" xmlns="http://www.w3.org/2000/svg"
 width="564.000000pt" height="443.000000pt" viewBox="0 0 564.000000 443.000000"
 preserveAspectRatio="xMidYMid meet">

<g transform="translate(0.000000,443.000000) scale(0.100000,-0.100000)"
fill="#000000" stroke="none">
<path d="M2695 3728 c-20 -18 -54 -106 -160 -418 -153 -447 -151 -429 -49
-411 143 24 402 22 556 -5 30 -5 39 -3 44 10 9 24 -254 783 -284 818 -29 35
-71 37 -107 6z"/>
<path d="M3180 3635 c-6 -14 -10 -31 -10 -36 0 -5 -18 -9 -40 -9 -46 0 -51
-11 -14 -35 23 -15 26 -21 20 -57 -4 -22 -3 -38 1 -36 5 2 20 10 35 17 24 12
31 12 52 -3 35 -22 37 -21 30 23 -6 35 -3 41 20 56 37 24 32 35 -13 35 -36 0
-40 3 -46 30 -9 41 -23 47 -35 15z"/>
<path d="M2087 3203 c-2 -5 -10 -25 -16 -45 -12 -37 -14 -38 -62 -38 -27 0
-49 -3 -49 -7 0 -5 16 -22 36 -38 36 -31 36 -31 23 -73 -7 -23 -9 -45 -6 -49
4 -3 24 5 45 19 l38 26 40 -24 c21 -13 42 -24 46 -24 4 0 1 21 -7 47 -8 26
-13 48 -12 49 1 1 19 16 41 33 42 33 38 38 -28 43 -37 3 -40 6 -54 46 -13 39
-25 52 -35 35z"/>
<path d="M3325 2966 c-17 -9 -19 -15 -10 -31 5 -11 20 -21 33 -22 14 -2 21 1
17 7 -4 6 -1 17 5 25 10 12 9 15 -3 15 -8 0 -17 4 -19 8 -1 4 -12 3 -23 -2z"/>
<path d="M2565 2818 c-374 -38 -602 -182 -515 -325 24 -40 96 -93 161 -118
l49 -19 0 -237 0 -236 -50 17 c-99 33 -204 -8 -254 -99 -76 -141 26 -310 187
-311 57 0 98 19 150 68 61 59 67 95 67 399 l0 264 25 24 24 25 335 0 335 0 28
-24 28 -24 3 -157 c4 -165 0 -194 -21 -177 -36 29 -141 31 -197 2 -123 -63
-158 -224 -69 -325 98 -111 271 -95 346 32 l28 48 3 358 c2 231 6 357 13 357
6 0 38 14 72 31 266 131 156 326 -228 403 -173 34 -344 42 -520 24z m565 -358
c8 -14 8 -26 0 -40 -10 -19 -21 -20 -378 -20 -379 0 -392 1 -392 40 0 39 13
40 392 40 357 0 368 -1 378 -20z m-982 -641 c3 -30 -55 -95 -93 -105 -60 -15
-82 21 -44 70 52 66 131 86 137 35z m888 16 c15 -39 -72 -125 -127 -125 -32 0
-40 15 -26 53 20 59 137 114 153 72z"/>
</g>
</svg>
