<?xml version="1.0" standalone="no"?>
<!DOCTYPE svg PUBLIC "-//W3C//DTD SVG 20010904//EN"
 "http://www.w3.org/TR/2001/REC-SVG-20010904/DTD/svg10.dtd">
<svg version="1.0" xmlns="http://www.w3.org/2000/svg"
 width="1000.000000pt" height="1125.000000pt" viewBox="0 0 1000.000000 1125.000000"
 preserveAspectRatio="xMidYMid meet">

<g transform="translate(0.000000,1125.000000) scale(0.100000,-0.100000)"
fill="#000000" stroke="none">
<path d="M3870 10614 c-14 -2 -56 -9 -95 -15 -89 -14 -253 -68 -336 -109 -168
-84 -339 -225 -447 -370 -32 -42 -114 -172 -181 -288 l-123 -212 -268 0 c-369
0 -498 -24 -717 -135 -349 -175 -589 -490 -678 -885 -13 -58 -18 -144 -22
-372 l-5 -297 -172 -98 c-255 -146 -339 -204 -446 -311 -363 -362 -473 -898
-283 -1375 20 -49 91 -185 159 -304 68 -118 124 -216 124 -218 0 -1 -56 -100
-124 -218 -137 -240 -177 -326 -212 -465 -129 -507 73 -1053 498 -1352 40 -28
160 -101 266 -162 l192 -111 0 -241 c0 -133 5 -280 11 -326 67 -542 460 -972
1001 -1097 56 -13 144 -18 376 -22 l303 -6 119 -205 c142 -246 207 -336 317
-440 364 -345 907 -445 1363 -253 47 20 178 89 292 155 113 65 211 118 218
118 7 0 105 -54 219 -119 114 -66 246 -135 292 -155 460 -190 995 -91 1359
250 111 105 176 196 319 442 l123 212 268 0 c195 0 291 4 356 15 497 86 900
457 1023 941 32 127 41 233 41 489 l0 241 207 119 c113 66 245 150 292 186
451 347 615 951 403 1483 -19 49 -91 185 -159 303 -67 119 -123 217 -123 218
0 1 55 99 123 216 67 118 137 249 155 291 75 180 109 403 91 596 -29 316 -151
577 -373 797 -114 113 -165 149 -428 301 l-188 108 0 241 c0 132 -5 279 -11
325 -69 562 -495 1008 -1053 1105 -65 11 -161 15 -356 15 l-268 0 -123 212
c-143 246 -208 337 -319 442 -319 300 -765 413 -1195 305 -126 -32 -233 -81
-456 -210 -114 -65 -213 -119 -220 -119 -6 0 -87 44 -178 97 -282 164 -388
211 -566 248 -76 16 -329 29 -385 19z m361 -120 c151 -28 242 -68 502 -217
142 -81 157 -92 141 -104 -10 -7 -228 -135 -485 -283 l-468 -270 -551 0 c-377
0 -550 3 -550 10 0 18 189 340 241 411 60 82 205 222 284 274 139 92 317 162
465 184 41 6 86 13 100 15 45 8 238 -4 321 -20z m1885 15 c183 -20 350 -77
502 -171 105 -65 263 -214 330 -311 57 -82 232 -382 232 -397 0 -7 -193 -10
-550 -10 l-551 0 -472 272 c-260 149 -478 276 -485 283 -10 9 21 31 145 102
304 174 396 209 638 237 63 7 119 6 211 -5z m-679 -637 c227 -130 412 -240
413 -244 0 -5 -383 -8 -852 -8 -725 0 -850 2 -838 14 35 33 836 486 850 480 8
-3 200 -112 427 -242z m-2825 -384 c-11 -18 -133 -231 -272 -473 -139 -242
-260 -447 -269 -457 -15 -16 -918 -540 -953 -553 -17 -7 -18 4 -18 151 0 301
24 462 91 631 123 311 393 564 716 673 142 47 231 58 491 59 l234 1 -20 -32z
m1103 17 c-26 -21 -1415 -822 -1439 -831 -19 -7 -19 -6 1 27 11 19 105 180
208 359 103 179 205 355 227 393 l39 67 492 0 c437 -1 490 -2 472 -15z m3234
-508 l904 -522 523 -905 523 -905 0 -1040 0 -1040 -523 -905 -523 -905 -904
-522 -904 -523 -1045 0 -1045 0 -904 523 -904 522 -523 905 -523 905 0 1040 0
1040 523 905 523 905 904 522 904 523 1045 0 1045 0 904 -523z m523 138 c120
-209 231 -400 245 -424 23 -39 23 -43 7 -37 -24 9 -1414 811 -1440 831 -17 13
40 14 475 12 l493 -2 220 -380z m431 370 c408 -61 756 -340 910 -730 60 -152
77 -256 84 -534 6 -236 6 -244 -12 -237 -37 14 -940 538 -956 555 -9 9 -130
214 -269 456 -139 242 -261 455 -272 473 l-20 32 219 0 c141 0 253 -5 316 -15z
m-5966 -1188 c-14 -23 -206 -355 -426 -736 -225 -390 -403 -688 -406 -680 -3
8 -4 230 -3 493 l3 480 420 243 c231 133 424 243 428 243 5 0 -2 -19 -16 -43z
m6538 -200 l420 -243 3 -484 c1 -266 -1 -487 -5 -491 -5 -4 -185 300 -401 674
-216 375 -406 706 -423 735 -17 28 -27 52 -22 52 4 0 197 -110 428 -243z
m-7475 -864 l0 -558 -274 -475 c-151 -261 -278 -476 -282 -477 -13 -4 -218
360 -254 448 -69 176 -97 408 -71 589 28 190 109 389 219 536 65 87 190 211
267 264 43 29 385 230 392 230 2 0 3 -251 3 -557z m8179 457 c236 -137 251
-148 376 -274 155 -158 243 -312 302 -533 24 -88 27 -116 27 -278 1 -199 -13
-278 -74 -433 -35 -88 -241 -453 -253 -449 -5 1 -132 216 -282 477 l-275 475
0 558 c0 306 2 557 4 557 2 0 81 -45 175 -100z m-8179 -2087 c0 -524 -4 -843
-9 -837 -16 15 -484 828 -484 839 0 6 100 183 223 395 247 428 260 450 266
450 2 0 4 -381 4 -847z m8256 422 c130 -226 237 -414 237 -420 0 -11 -468
-824 -484 -839 -5 -6 -9 311 -9 839 0 537 3 846 10 839 5 -5 116 -194 246
-419z m-8530 -1015 l274 -475 0 -557 c0 -307 -2 -558 -4 -558 -7 0 -346 199
-394 231 -83 56 -262 247 -315 335 -64 108 -112 222 -144 341 -24 88 -27 116
-27 278 -1 198 12 274 73 432 34 87 241 455 254 450 5 -1 132 -216 283 -477z
m8946 293 c116 -204 156 -293 190 -430 19 -75 23 -114 22 -268 0 -162 -3 -190
-27 -278 -59 -221 -147 -375 -302 -533 -125 -126 -145 -141 -380 -276 l-170
-98 -3 557 -2 557 43 76 c24 41 149 256 276 478 128 221 236 402 239 402 4 0
55 -84 114 -187z m-7956 -2008 c133 -231 241 -422 239 -424 -2 -2 -194 107
-427 241 l-423 244 -3 480 c-1 263 0 485 3 493 3 8 82 -118 187 -300 100 -173
290 -503 424 -734z m7182 545 l-3 -484 -423 -244 c-232 -135 -424 -243 -427
-241 -7 8 840 1467 848 1460 4 -4 6 -225 5 -491z m-7303 -887 c253 -145 467
-272 476 -281 9 -10 130 -215 269 -457 139 -242 262 -455 273 -474 l20 -33
-264 5 c-285 5 -354 15 -504 72 -301 113 -557 363 -674 658 -67 169 -91 330
-91 626 0 151 1 163 18 156 9 -3 224 -126 477 -272z m7305 120 c-1 -343 -31
-509 -129 -708 -71 -142 -130 -222 -243 -330 -157 -151 -332 -246 -548 -297
-70 -17 -131 -21 -349 -25 l-264 -5 20 33 c11 19 134 232 273 474 139 242 260
447 269 457 17 17 950 558 964 558 4 0 7 -71 7 -157z m-5905 -928 c385 -222
709 -411 720 -419 18 -14 -30 -15 -474 -13 l-493 2 -237 410 c-130 226 -240
416 -245 424 -7 11 -5 13 10 7 10 -4 334 -189 719 -411z m4718 368 c-15 -27
-125 -217 -244 -423 l-217 -375 -493 -3 c-314 -1 -490 1 -484 7 14 14 1448
841 1458 841 4 0 -5 -21 -20 -47z m-3320 -1174 c260 -150 478 -277 485 -284
10 -9 -22 -32 -155 -108 -328 -187 -461 -230 -718 -230 -243 -1 -444 59 -649
193 -99 64 -240 201 -304 294 -57 82 -232 381 -232 396 0 7 193 10 551 10
l550 0 472 -271z m1457 264 c-1 -11 -832 -487 -850 -487 -16 0 -815 457 -840
480 -12 12 115 14 838 14 469 0 852 -3 852 -7z m1330 -4 c0 -11 -160 -290
-218 -379 -57 -88 -245 -267 -343 -328 -337 -207 -751 -235 -1099 -76 -115 53
-412 226 -403 235 4 4 222 132 483 283 l475 275 553 0 c379 1 552 -2 552 -10z"/>
<path d="M6660 5625 l0 -665 670 0 670 0 0 582 0 583 -83 -83 -82 -82 -90 0
-90 0 85 85 85 85 -80 80 -80 80 -110 0 -110 0 80 -80 80 -80 -85 -85 -85 -85
-105 0 -105 0 85 85 85 85 -80 80 -80 80 -115 0 -115 0 80 -80 80 -80 -85 -85
-85 -85 -90 0 -90 0 85 85 85 85 -80 80 -80 80 -82 0 -83 0 0 -665z m1178 -82
l-3 -88 -507 -3 -508 -2 0 90 0 90 510 0 511 0 -3 -87z m2 -338 l0 -85 -510 0
-510 0 0 85 0 85 510 0 510 0 0 -85z"/>
<path d="M7850 6287 c0 -1 34 -36 75 -77 l75 -74 0 77 0 77 -75 0 c-41 0 -75
-1 -75 -3z"/>
<path d="M2287 6020 c-69 -12 -150 -54 -188 -97 -123 -141 -125 -449 -4 -591
118 -137 395 -143 522 -10 90 95 126 274 87 438 -37 159 -145 251 -309 264
-33 3 -82 1 -108 -4z m204 -97 c103 -53 145 -156 137 -333 -6 -115 -33 -185
-89 -234 -49 -41 -98 -56 -185 -56 -169 1 -258 112 -258 325 0 128 23 197 83
255 55 54 92 68 187 69 58 1 80 -4 125 -26z"/>
<path d="M4528 5625 l-155 -395 42 0 42 0 48 125 48 125 163 0 163 0 48 -125
48 -125 43 0 c24 0 42 4 40 9 -1 6 -70 183 -153 395 l-150 386 -36 0 -35 0
-156 -395z m206 258 c6 -22 77 -219 111 -305 7 -17 -3 -18 -124 -18 -72 0
-131 3 -131 7 0 3 22 65 49 137 27 72 55 150 62 173 13 46 23 48 33 6z"/>
<path d="M2810 5975 l0 -35 125 0 125 0 0 -355 0 -355 40 0 40 0 0 355 0 355
125 0 125 0 0 35 0 35 -290 0 -290 0 0 -35z"/>
<path d="M3420 5975 l0 -35 125 0 125 0 0 -355 0 -355 40 0 40 0 0 355 0 355
125 0 125 0 0 35 0 35 -290 0 -290 0 0 -35z"/>
<path d="M5180 5620 l0 -390 40 0 40 0 0 155 0 155 48 0 c150 1 268 40 315
102 71 96 60 241 -22 311 -52 44 -117 57 -278 57 l-143 0 0 -390z m293 309
c21 -5 52 -23 70 -38 28 -26 32 -35 35 -97 6 -126 -48 -170 -218 -176 l-95 -3
-3 163 -2 162 87 0 c49 0 105 -5 126 -11z"/>
<path d="M5840 5620 l0 -390 45 0 45 0 0 154 0 153 94 7 c121 8 188 29 236 72
53 48 70 89 70 171 -1 117 -44 178 -147 209 -30 9 -97 14 -195 14 l-148 0 0
-390z m341 292 c82 -50 91 -183 18 -248 -33 -29 -78 -42 -181 -50 l-88 -6 0
167 0 167 108 -3 c90 -4 113 -8 143 -27z"/>
<path d="M4060 5525 l0 -35 130 0 130 0 0 35 0 35 -130 0 -130 0 0 -35z"/>
</g>
</svg>
